<svg width="16" height="18" viewBox="0 0 16 18" fill="none" xmlns="http://www.w3.org/2000/svg">
<path fill-rule="evenodd" clip-rule="evenodd" d="M8 1.74922L1.52147 5.49751C1.67914 8.67886 2.68827 11.4058 3.98645 13.3593C4.69453 14.4248 5.46832 15.23 6.2019 15.7563C6.9476 16.2913 7.56831 16.4812 8 16.4812C8.43169 16.4812 9.0524 16.2913 9.7981 15.7563C10.5317 15.23 11.3055 14.4248 12.0135 13.3593C13.3117 11.4058 14.3209 8.67886 14.4785 5.49751L8 1.74922ZM16 4.62857L8 0L0 4.62857C0 12.3429 4.64516 18 8 18C11.3548 18 16 12.3429 16 4.62857Z" fill="#0F7EE6"/>
<path d="M10.6395 6.36887L7.29464 9.6647L5.87306 8.24043L4.4037 9.6647L7.29464 12.5015L12.0969 7.7696L10.6395 6.36887Z" fill="#0F7EE6"/>
</svg>
