<svg width="12" height="16" viewBox="0 0 12 16" fill="none" xmlns="http://www.w3.org/2000/svg">
<path d="M1.84615 2.66667V15.6581C1.00496 15.5853 1.63063e-07 15.0392 1.63063e-07 14.2222V4.04865C-0.000343884 3.23135 1.0053 2.73916 1.84615 2.66667ZM7.38462 2.66667H9.23077V15.6731L8.30769 15.6581V16H7.38462V15.6731H4.61538V16H3.69231V15.6581L2.76923 15.6731V2.66667H4.61538V0.444444C4.61538 0.228281 4.84882 0 5.07692 0H6.92308C7.15084 0 7.38462 0.228281 7.38462 0.444444V2.66667ZM5.53846 2.66667H6.46154V0.888889H5.53846V2.66667ZM10.1538 2.66667V15.6731C10.9947 15.6003 12 15.0392 12 14.2222V4C12.0003 3.18269 10.995 2.73916 10.1538 2.66667Z" fill="#0F7EE6"/>
</svg>
