<svg width="12" height="16" viewBox="0 0 12 16" fill="none" xmlns="http://www.w3.org/2000/svg">
<path d="M8.95673 7.51862C8.90865 7.49825 8.86058 7.47787 8.8125 7.4575C8.76442 7.43712 8.71154 7.42693 8.65385 7.42693C8.60577 7.42693 8.55289 7.43712 8.49519 7.4575C8.44712 7.47787 8.40385 7.49825 8.36539 7.51862C8.03846 7.77332 7.67308 7.97198 7.26923 8.11461C6.86538 8.24706 6.44231 8.31328 6 8.31328C5.55769 8.31328 5.13462 8.24196 4.73077 8.09933C4.33654 7.9567 3.97115 7.76313 3.63462 7.51862C3.59615 7.48806 3.55288 7.46769 3.50481 7.4575C3.45673 7.43712 3.40385 7.42693 3.34615 7.42693C3.29808 7.42693 3.24519 7.43712 3.1875 7.4575C3.13942 7.47787 3.09615 7.49825 3.05769 7.51862C2.58654 7.8752 2.16346 8.28271 1.78846 8.74117C1.41346 9.18943 1.09135 9.68354 0.822115 10.2235C0.5625 10.7533 0.360577 11.3187 0.216346 11.9198C0.0721154 12.5209 0 13.1423 0 13.7841C0 13.8147 0 13.8504 0 13.8911C0 13.9217 0 13.9522 0 13.9828C0 14.0541 0 14.1305 0 14.212C0 14.2833 0 14.3598 0 14.4413C0.00961538 14.5533 0.0480769 14.6501 0.115385 14.7316C0.182692 14.8131 0.269231 14.8641 0.375 14.8844C0.730769 15.0372 1.125 15.1799 1.55769 15.3123C1.98077 15.4448 2.42788 15.5568 2.89904 15.6485C3.37981 15.7504 3.87981 15.8319 4.39904 15.893C4.90865 15.9542 5.43269 15.9898 5.97115 16C6.44231 16 6.91827 15.9745 7.39904 15.9236C7.88942 15.8727 8.375 15.7962 8.85577 15.6944C9.34615 15.6027 9.83173 15.4855 10.3125 15.3429C10.7933 15.2003 11.2644 15.0372 11.726 14.8539C11.7644 14.8539 11.8125 14.8131 11.8702 14.7316C11.9375 14.6501 11.976 14.5533 11.9856 14.4413C11.9856 14.3598 11.9856 14.2833 11.9856 14.212C11.9856 14.1305 11.9856 14.049 11.9856 13.9675C11.9856 13.937 11.9856 13.9064 11.9856 13.8758C11.9952 13.8453 12 13.8096 12 13.7689C12 13.127 11.9279 12.5056 11.7837 11.9045C11.6394 11.3136 11.4327 10.7533 11.1635 10.2235C10.9038 9.68354 10.5865 9.18943 10.2115 8.74117C9.84615 8.2929 9.43269 7.89048 8.97115 7.53391L8.95673 7.51862ZM6.01442 7.44222C6.49519 7.44222 6.94231 7.34543 7.35577 7.15186C7.77885 6.94811 8.14904 6.68322 8.46635 6.35721C8.78365 6.02101 9.03365 5.62878 9.21635 5.18052C9.39904 4.73225 9.49039 4.25342 9.49039 3.74403C9.49039 3.22445 9.39904 2.74053 9.21635 2.29226C9.02404 1.83381 8.76923 1.43649 8.45192 1.10029C8.13462 0.764088 7.75962 0.49411 7.32692 0.290353C6.90385 0.0967845 6.44712 0 5.95673 0C5.46635 0 5.00962 0.0967845 4.58654 0.290353C4.15385 0.49411 3.77404 0.764088 3.44712 1.10029C3.12981 1.43649 2.87981 1.83381 2.69712 2.29226C2.51442 2.74053 2.42308 3.22445 2.42308 3.74403C2.42308 4.25342 2.51442 4.73225 2.69712 5.18052C2.88942 5.63897 3.14423 6.03629 3.46154 6.37249C3.77885 6.6985 4.14904 6.95829 4.57212 7.15186C4.99519 7.34543 5.45192 7.44222 5.94231 7.44222C5.95192 7.44222 5.96154 7.44222 5.97115 7.44222C5.99038 7.44222 6.00481 7.44222 6.01442 7.44222Z" fill="#0F7EE6"/>
</svg>
